<svg width="99" height="86" viewBox="0 0 99 86" fill="none" xmlns="http://www.w3.org/2000/svg">
<path d="M50 65.9998C49.4343 65.9997 48.8783 65.852 48.3872 65.5712L19.9375 49.311C19.6903 49.1683 19.4099 49.0932 19.1244 49.0933C18.839 49.0934 18.5586 49.1687 18.3115 49.3116C18.0644 49.4545 17.8593 49.66 17.7168 49.9074C17.5744 50.1548 17.4996 50.4353 17.5 50.7207V65.9998C17.4995 66.5798 17.6543 67.1495 17.9483 67.6495C18.2422 68.1496 18.6647 68.5618 19.1717 68.8435L48.4217 85.0935C48.9045 85.3617 49.4477 85.5025 50 85.5025C50.5523 85.5025 51.0955 85.3617 51.5783 85.0935L80.8283 68.8435C81.3354 68.5618 81.7578 68.1496 82.0518 67.6495C82.3457 67.1495 82.5005 66.5798 82.5 65.9998V50.7207C82.5004 50.4353 82.4256 50.1548 82.2832 49.9074C82.1407 49.66 81.9356 49.4545 81.6885 49.3116C81.4414 49.1687 81.1611 49.0934 80.8756 49.0933C80.5901 49.0932 80.3097 49.1683 80.0625 49.311L51.6128 65.5712C51.1217 65.852 50.5657 65.9997 50 65.9998Z" fill="black" fill-opacity="0.5"/>
<path d="M50 1.24982L1 30.7498L50 59.7498L92.5 35.7498V68.2498C94.8433 70.3696 96.1567 70.4679 98.5 68.2498V30.7498L50 1.24982Z" fill="black"/>
<path d="M50 66.7498L18 49.2498V68.2498L50 85.2498L81.5 68.2498V49.2498L50 66.7498Z" fill="black"/>
<path d="M50 1.24982L1 30.7498L50 59.7498L92.5 35.7498V68.2498C94.8433 70.3696 96.1567 70.4679 98.5 68.2498V30.7498L50 1.24982Z" stroke="black"/>
<path d="M50 66.7498L18 49.2498V68.2498L50 85.2498L81.5 68.2498V49.2498L50 66.7498Z" stroke="black"/>
</svg>
