<svg width="70" height="80" viewBox="0 0 70 80" fill="none" xmlns="http://www.w3.org/2000/svg">
<path d="M69 1H1L7.13115 71.2295L35 79.0328L62.8689 71.2295L69 1Z" fill="#E44D26" stroke="#E44D26"/>
<path d="M35 4V13.9584H56.5956L55.459 25.6743H35V32.118H54.8907L52.6175 61.4075L35 66.6796V75.4665L57.7322 68.437L63.9836 4H35Z" fill="#FF6C39"/>
<path d="M42.9563 43.8338H35V55.5496L42.388 52.6207L42.9563 43.8338Z" fill="#FF6C39"/>
<path d="M35 4V13.9584H56.5956L55.459 25.6743H35V32.118H54.8907L52.6175 61.4075L35 66.6796V75.4665L57.7322 68.437L63.9836 4H35Z" stroke="#FF6C39"/>
<path d="M42.9563 43.8338H35V55.5496L42.388 52.6207L42.9563 43.8338Z" stroke="#FF6C39"/>
<path d="M55.623 15.4918H14.3771L17.1639 42.8032H43.3607L42.8033 52.2786L35 55.0655L27.1967 52.2786L26.6394 47.2623H17.1639L18.8361 59.5246L35 64.5409L51.7213 59.5246L53.9508 32.7705H26.082L25.5246 25.5245H54.5082L55.623 15.4918Z" fill="white" stroke="#FF6C39"/>
</svg>
