<svg width="71" height="80" viewBox="0 0 71 80" fill="none" xmlns="http://www.w3.org/2000/svg">
<path d="M69.5 1H1L7 71L35 79L63 71L69.5 1Z" fill="#D4B830" stroke="#D4B830"/>
<path d="M63.5 7H35V7.5V73.5L58 67L63.5 7Z" fill="#FDD83C" stroke="#FDD83C"/>
<path d="M32.5 16H25.5V52L12 48.5V56.5L32.5 62V16Z" fill="white"/>
<path d="M56.5 57L38 62V54L51 50.5V44L38 46V16H59.5L59 24H44.5V36L58 35L56.5 57Z" fill="white"/>
<path d="M32.5 16H25.5V52L12 48.5V56.5L32.5 62V16Z" stroke="#EDEDED"/>
<path d="M56.5 57L38 62V54L51 50.5V44L38 46V16H59.5L59 24H44.5V36L58 35L56.5 57Z" stroke="#EDEDED"/>
</svg>
