<svg width="92" height="99" viewBox="0 0 92 99" fill="none" xmlns="http://www.w3.org/2000/svg">
<path d="M90 49.3372C90 51.2574 89.0663 53.2722 86.9878 55.3019C84.9027 57.338 81.782 59.2638 77.7634 60.9237C69.7354 64.2396 58.5064 66.3372 46 66.3372C33.4936 66.3372 22.2646 64.2396 14.2366 60.9237C10.218 59.2638 7.09726 57.338 5.01224 55.3019C2.93374 53.2722 2 51.2574 2 49.3372C2 47.4169 2.93374 45.4021 5.01224 43.3724C7.09726 41.3363 10.218 39.4105 14.2366 37.7507C22.2646 34.4347 33.4936 32.3372 46 32.3372C58.5064 32.3372 69.7354 34.4347 77.7634 37.7507C81.782 39.4105 84.9027 41.3363 86.9878 43.3724C89.0663 45.4021 90 47.4169 90 49.3372Z" stroke="#00D8FF" stroke-width="4"/>
<path d="M68 87.4423C66.337 88.4024 64.1253 88.6012 61.3282 87.816C58.5224 87.0284 55.2943 85.2886 51.8475 82.6383C44.9618 77.3438 37.5308 68.668 31.2776 57.8372C25.0244 47.0063 21.2264 36.233 20.0841 27.6225C19.5123 23.3123 19.6197 19.6468 20.3405 16.8231C21.059 14.0082 22.337 12.1922 24 11.2321C25.6629 10.2719 27.8747 10.0732 30.6717 10.8583C33.4776 11.646 36.7057 13.3857 40.1525 16.036C47.0382 21.3305 54.4692 30.0063 60.7224 40.8372C66.9756 51.668 70.7735 62.4414 71.9159 71.0518C72.4877 75.362 72.3803 79.0275 71.6595 81.8512C70.9409 84.6661 69.6629 86.4822 68 87.4423Z" stroke="#00D8FF" stroke-width="4"/>
<path d="M24 87.4423C22.337 86.4822 21.059 84.6661 20.3405 81.8512C19.6196 79.0275 19.5122 75.362 20.0841 71.0518C21.2264 62.4414 25.0243 51.668 31.2776 40.8372C37.5308 30.0063 44.9618 21.3305 51.8475 16.036C55.2943 13.3857 58.5224 11.646 61.3282 10.8583C64.1253 10.0732 66.337 10.2719 68 11.232C69.6629 12.1922 70.9409 14.0082 71.6595 16.8231C72.3803 19.6468 72.4877 23.3123 71.9159 27.6225C70.7735 36.233 66.9756 47.0063 60.7224 57.8372C54.4692 68.668 47.0382 77.3438 40.1525 82.6383C36.7057 85.2886 33.4776 87.0284 30.6717 87.816C27.8747 88.6011 25.6629 88.4024 24 87.4423Z" stroke="#00D8FF" stroke-width="4"/>
<circle cx="46" cy="49.3372" r="8" fill="#00D8FF"/>
</svg>
